{
    "asset" : {
        "generator" : "Khronos glTF Blender I/O v1.6.16",
        "version" : "2.0"
    },
    "scene" : 0,
    "scenes" : [
        {
            "name" : "Scene",
            "nodes" : [
                0,
                1,
                2,
                3,
                4
            ]
        }
    ],
    "nodes" : [
        {
            "name" : "Light",
            "rotation" : [
                0.16907575726509094,
                0.7558803558349609,
                -0.27217137813568115,
                0.570947527885437
            ],
            "translation" : [
                4.076245307922363,
                5.903861999511719,
                -1.0054539442062378
            ]
        },
        {
            "name" : "Camera",
            "rotation" : [
                0.483536034822464,
                0.33687159419059753,
                -0.20870360732078552,
                0.7804827094078064
            ],
            "translation" : [
                13.33742904663086,
                11.458884239196777,
                14.890813827514648
            ]
        },
        {
            "mesh" : 0,
            "name" : "tut3qn1a(new)",
            "rotation" : [
                0.5,
                -0.5,
                0.5,
                0.4999999701976776
            ],
            "translation" : [
                2.48077392578125,
                3.1383159160614014,
                0
            ]
        },
        {
            "mesh" : 1,
            "name" : "tut3qn2a (1)",
            "rotation" : [
                -0.5000001192092896,
                0.49999988079071045,
                -0.49999988079071045,
                -0.5000001192092896
            ],
            "translation" : [
                0,
                0.1410975456237793,
                21.555469512939453
            ]
        },
        {
            "mesh" : 2,
            "name" : "tut3qn2c",
            "rotation" : [
                0.5,
                0.5000001192092896,
                -0.5000001192092896,
                0.4999999701976776
            ],
            "translation" : [
                0,
                2.6819944381713867,
                -15.799385070800781
            ]
        }
    ],
    "materials" : [
        {
            "doubleSided" : true,
            "name" : "Material.001",
            "pbrMetallicRoughness" : {
                "baseColorFactor" : [
                    0.02181992679834366,
                    0.8000000715255737,
                    0.5877246856689453,
                    1
                ],
                "metallicFactor" : 0,
                "roughnessFactor" : 0.5
            }
        },
        {
            "doubleSided" : true,
            "name" : "Material.004",
            "pbrMetallicRoughness" : {
                "baseColorFactor" : [
                    0.8000000715255737,
                    0,
                    0.008483793586492538,
                    1
                ],
                "metallicFactor" : 0,
                "roughnessFactor" : 0.5
            }
        },
        {
            "doubleSided" : true,
            "name" : "Material.006",
            "pbrMetallicRoughness" : {
                "baseColorFactor" : [
                    0,
                    0.8000000715255737,
                    0.006923300679773092,
                    1
                ],
                "metallicFactor" : 0,
                "roughnessFactor" : 0.5
            }
        },
        {
            "doubleSided" : true,
            "name" : "Material.007",
            "pbrMetallicRoughness" : {
                "baseColorFactor" : [
                    0.04557304456830025,
                    0.6476674675941467,
                    0.8000000715255737,
                    1
                ],
                "metallicFactor" : 0,
                "roughnessFactor" : 0.5
            }
        },
        {
            "doubleSided" : true,
            "name" : "Material.008",
            "pbrMetallicRoughness" : {
                "baseColorFactor" : [
                    0.42899078130722046,
                    0,
                    0.8000000715255737,
                    1
                ],
                "metallicFactor" : 0,
                "roughnessFactor" : 0.5
            }
        },
        {
            "doubleSided" : true,
            "name" : "Material.009",
            "pbrMetallicRoughness" : {
                "baseColorFactor" : [
                    0,
                    0.8000000715255737,
                    0.00576560664921999,
                    1
                ],
                "metallicFactor" : 0,
                "roughnessFactor" : 0.5
            }
        }
    ],
    "meshes" : [
        {
            "name" : "tut3qn1a(new)",
            "primitives" : [
                {
                    "attributes" : {
                        "POSITION" : 0,
                        "NORMAL" : 1
                    },
                    "indices" : 2,
                    "material" : 0
                },
                {
                    "attributes" : {
                        "POSITION" : 3,
                        "NORMAL" : 4
                    },
                    "indices" : 5,
                    "material" : 1
                }
            ]
        },
        {
            "name" : "tut3qn2a (1).001",
            "primitives" : [
                {
                    "attributes" : {
                        "POSITION" : 6,
                        "NORMAL" : 7
                    },
                    "indices" : 8,
                    "material" : 2
                },
                {
                    "attributes" : {
                        "POSITION" : 9,
                        "NORMAL" : 10
                    },
                    "indices" : 11,
                    "material" : 3
                }
            ]
        },
        {
            "name" : "tut3qn2c.001",
            "primitives" : [
                {
                    "attributes" : {
                        "POSITION" : 12,
                        "NORMAL" : 13
                    },
                    "indices" : 14,
                    "material" : 4
                },
                {
                    "attributes" : {
                        "POSITION" : 15,
                        "NORMAL" : 16
                    },
                    "indices" : 17,
                    "material" : 5
                }
            ]
        }
    ],
    "accessors" : [
        {
            "bufferView" : 0,
            "componentType" : 5126,
            "count" : 55,
            "max" : [
                3.5,
                5.5,
                3.0310888290405273
            ],
            "min" : [
                -3.5,
                0,
                -3.412247657775879
            ],
            "type" : "VEC3"
        },
        {
            "bufferView" : 1,
            "componentType" : 5126,
            "count" : 55,
            "type" : "VEC3"
        },
        {
            "bufferView" : 2,
            "componentType" : 5123,
            "count" : 135,
            "type" : "SCALAR"
        },
        {
            "bufferView" : 3,
            "componentType" : 5126,
            "count" : 69,
            "max" : [
                3.5,
                5.5,
                3.0310888290405273
            ],
            "min" : [
                -3.5,
                0,
                -3.443222999572754
            ],
            "type" : "VEC3"
        },
        {
            "bufferView" : 4,
            "componentType" : 5126,
            "count" : 69,
            "type" : "VEC3"
        },
        {
            "bufferView" : 5,
            "componentType" : 5123,
            "count" : 147,
            "type" : "SCALAR"
        },
        {
            "bufferView" : 6,
            "componentType" : 5126,
            "count" : 248,
            "max" : [
                5.400000095367432,
                5.39086389541626,
                0
            ],
            "min" : [
                -5.400000095367432,
                -7.800000190734863,
                -8.800000190734863
            ],
            "type" : "VEC3"
        },
        {
            "bufferView" : 7,
            "componentType" : 5126,
            "count" : 248,
            "type" : "VEC3"
        },
        {
            "bufferView" : 8,
            "componentType" : 5123,
            "count" : 807,
            "type" : "SCALAR"
        },
        {
            "bufferView" : 9,
            "componentType" : 5126,
            "count" : 209,
            "max" : [
                5.400000095367432,
                5.39086389541626,
                0
            ],
            "min" : [
                -5.400000095367432,
                -7.800000190734863,
                -8.570329666137695
            ],
            "type" : "VEC3"
        },
        {
            "bufferView" : 10,
            "componentType" : 5126,
            "count" : 209,
            "type" : "VEC3"
        },
        {
            "bufferView" : 11,
            "componentType" : 5123,
            "count" : 573,
            "type" : "SCALAR"
        },
        {
            "bufferView" : 12,
            "componentType" : 5126,
            "count" : 413,
            "max" : [
                5.999081134796143,
                8,
                2.200000047683716
            ],
            "min" : [
                -5.999081134796143,
                -5.9321160316467285,
                -3
            ],
            "type" : "VEC3"
        },
        {
            "bufferView" : 13,
            "componentType" : 5126,
            "count" : 413,
            "type" : "VEC3"
        },
        {
            "bufferView" : 14,
            "componentType" : 5123,
            "count" : 1167,
            "type" : "SCALAR"
        },
        {
            "bufferView" : 15,
            "componentType" : 5126,
            "count" : 369,
            "max" : [
                5.999081134796143,
                8,
                2.200000047683716
            ],
            "min" : [
                -5.999081134796143,
                -5.9321160316467285,
                -3
            ],
            "type" : "VEC3"
        },
        {
            "bufferView" : 16,
            "componentType" : 5126,
            "count" : 369,
            "type" : "VEC3"
        },
        {
            "bufferView" : 17,
            "componentType" : 5123,
            "count" : 1065,
            "type" : "SCALAR"
        }
    ],
    "bufferViews" : [
        {
            "buffer" : 0,
            "byteLength" : 660,
            "byteOffset" : 0
        },
        {
            "buffer" : 0,
            "byteLength" : 660,
            "byteOffset" : 660
        },
        {
            "buffer" : 0,
            "byteLength" : 270,
            "byteOffset" : 1320
        },
        {
            "buffer" : 0,
            "byteLength" : 828,
            "byteOffset" : 1592
        },
        {
            "buffer" : 0,
            "byteLength" : 828,
            "byteOffset" : 2420
        },
        {
            "buffer" : 0,
            "byteLength" : 294,
            "byteOffset" : 3248
        },
        {
            "buffer" : 0,
            "byteLength" : 2976,
            "byteOffset" : 3544
        },
        {
            "buffer" : 0,
            "byteLength" : 2976,
            "byteOffset" : 6520
        },
        {
            "buffer" : 0,
            "byteLength" : 1614,
            "byteOffset" : 9496
        },
        {
            "buffer" : 0,
            "byteLength" : 2508,
            "byteOffset" : 11112
        },
        {
            "buffer" : 0,
            "byteLength" : 2508,
            "byteOffset" : 13620
        },
        {
            "buffer" : 0,
            "byteLength" : 1146,
            "byteOffset" : 16128
        },
        {
            "buffer" : 0,
            "byteLength" : 4956,
            "byteOffset" : 17276
        },
        {
            "buffer" : 0,
            "byteLength" : 4956,
            "byteOffset" : 22232
        },
        {
            "buffer" : 0,
            "byteLength" : 2334,
            "byteOffset" : 27188
        },
        {
            "buffer" : 0,
            "byteLength" : 4428,
            "byteOffset" : 29524
        },
        {
            "buffer" : 0,
            "byteLength" : 4428,
            "byteOffset" : 33952
        },
        {
            "buffer" : 0,
            "byteLength" : 2130,
            "byteOffset" : 38380
        }
    ],
    "buffers" : [
        {
            "byteLength" : 40512,
            "uri" : "data:application/octet-stream;base64,"
        }
    ]
}
