{
    "asset" : {
        "generator" : "Khronos glTF Blender I/O v1.6.16",
        "version" : "2.0"
    },
    "scene" : 0,
    "scenes" : [
        {
            "name" : "Scene",
            "nodes" : [
                0,
                1,
                2
            ]
        }
    ],
    "nodes" : [
        {
            "name" : "Light",
            "rotation" : [
                0.16907575726509094,
                0.7558803558349609,
                -0.27217137813568115,
                0.570947527885437
            ],
            "translation" : [
                4.076245307922363,
                5.903861999511719,
                -1.0054539442062378
            ]
        },
        {
            "name" : "Camera",
            "rotation" : [
                0.483536034822464,
                0.33687159419059753,
                -0.20870360732078552,
                0.7804827094078064
            ],
            "translation" : [
                13.33742904663086,
                11.458884239196777,
                14.890813827514648
            ]
        },
        {
            "mesh" : 0,
            "name" : "tut3qn2c",
            "rotation" : [
                0.5,
                0.5000001192092896,
                -0.5000001192092896,
                0.4999999701976776
            ],
            "translation" : [
                -2.190849781036377,
                2.6819944381713867,
                0.042143821716308594
            ]
        }
    ],
    "materials" : [
        {
            "doubleSided" : true,
            "name" : "Material.008",
            "pbrMetallicRoughness" : {
                "baseColorFactor" : [
                    0.42899078130722046,
                    0,
                    0.8000000715255737,
                    1
                ],
                "metallicFactor" : 0,
                "roughnessFactor" : 0.5
            }
        },
        {
            "doubleSided" : true,
            "name" : "Material.009",
            "pbrMetallicRoughness" : {
                "baseColorFactor" : [
                    0,
                    0.8000000715255737,
                    0.00576560664921999,
                    1
                ],
                "metallicFactor" : 0,
                "roughnessFactor" : 0.5
            }
        }
    ],
    "meshes" : [
        {
            "name" : "tut3qn2c.001",
            "primitives" : [
                {
                    "attributes" : {
                        "POSITION" : 0,
                        "NORMAL" : 1
                    },
                    "indices" : 2,
                    "material" : 0
                },
                {
                    "attributes" : {
                        "POSITION" : 3,
                        "NORMAL" : 4
                    },
                    "indices" : 5,
                    "material" : 1
                }
            ]
        }
    ],
    "accessors" : [
        {
            "bufferView" : 0,
            "componentType" : 5126,
            "count" : 413,
            "max" : [
                5.999081134796143,
                8,
                2.200000047683716
            ],
            "min" : [
                -5.999081134796143,
                -5.9321160316467285,
                -3
            ],
            "type" : "VEC3"
        },
        {
            "bufferView" : 1,
            "componentType" : 5126,
            "count" : 413,
            "type" : "VEC3"
        },
        {
            "bufferView" : 2,
            "componentType" : 5123,
            "count" : 1167,
            "type" : "SCALAR"
        },
        {
            "bufferView" : 3,
            "componentType" : 5126,
            "count" : 369,
            "max" : [
                5.999081134796143,
                8,
                2.200000047683716
            ],
            "min" : [
                -5.999081134796143,
                -5.9321160316467285,
                -3
            ],
            "type" : "VEC3"
        },
        {
            "bufferView" : 4,
            "componentType" : 5126,
            "count" : 369,
            "type" : "VEC3"
        },
        {
            "bufferView" : 5,
            "componentType" : 5123,
            "count" : 1065,
            "type" : "SCALAR"
        }
    ],
    "bufferViews" : [
        {
            "buffer" : 0,
            "byteLength" : 4956,
            "byteOffset" : 0
        },
        {
            "buffer" : 0,
            "byteLength" : 4956,
            "byteOffset" : 4956
        },
        {
            "buffer" : 0,
            "byteLength" : 2334,
            "byteOffset" : 9912
        },
        {
            "buffer" : 0,
            "byteLength" : 4428,
            "byteOffset" : 12248
        },
        {
            "buffer" : 0,
            "byteLength" : 4428,
            "byteOffset" : 16676
        },
        {
            "buffer" : 0,
            "byteLength" : 2130,
            "byteOffset" : 21104
        }
    ],
    "buffers" : [
        {
            "byteLength" : 23236,
            "uri" : "data:application/octet-stream;base64,"
        }
    ]
}
