{
    "asset" : {
        "generator" : "Khronos glTF Blender I/O v1.6.16",
        "version" : "2.0"
    },
    "scene" : 0,
    "scenes" : [
        {
            "name" : "Scene",
            "nodes" : [
                0,
                1,
                2
            ]
        }
    ],
    "nodes" : [
        {
            "name" : "Light",
            "rotation" : [
                0.16907575726509094,
                0.7558803558349609,
                -0.27217137813568115,
                0.570947527885437
            ],
            "translation" : [
                4.076245307922363,
                5.903861999511719,
                -1.0054539442062378
            ]
        },
        {
            "name" : "Camera",
            "rotation" : [
                0.483536034822464,
                0.33687159419059753,
                -0.20870360732078552,
                0.7804827094078064
            ],
            "translation" : [
                13.33742904663086,
                11.458884239196777,
                14.890813827514648
            ]
        },
        {
            "mesh" : 0,
            "name" : "tut3qn2a (1)",
            "rotation" : [
                -0.5000001192092896,
                0.49999988079071045,
                -0.49999988079071045,
                -0.5000001192092896
            ],
            "translation" : [
                0,
                0.1410975456237793,
                0.11554145812988281
            ]
        }
    ],
    "materials" : [
        {
            "doubleSided" : true,
            "name" : "Material.006",
            "pbrMetallicRoughness" : {
                "baseColorFactor" : [
                    0,
                    0.8000000715255737,
                    0.006923300679773092,
                    1
                ],
                "metallicFactor" : 0,
                "roughnessFactor" : 0.5
            }
        },
        {
            "doubleSided" : true,
            "name" : "Material.007",
            "pbrMetallicRoughness" : {
                "baseColorFactor" : [
                    0.04557304456830025,
                    0.6476674675941467,
                    0.8000000715255737,
                    1
                ],
                "metallicFactor" : 0,
                "roughnessFactor" : 0.5
            }
        }
    ],
    "meshes" : [
        {
            "name" : "tut3qn2a (1).001",
            "primitives" : [
                {
                    "attributes" : {
                        "POSITION" : 0,
                        "NORMAL" : 1
                    },
                    "indices" : 2,
                    "material" : 0
                },
                {
                    "attributes" : {
                        "POSITION" : 3,
                        "NORMAL" : 4
                    },
                    "indices" : 5,
                    "material" : 1
                }
            ]
        }
    ],
    "accessors" : [
        {
            "bufferView" : 0,
            "componentType" : 5126,
            "count" : 248,
            "max" : [
                5.400000095367432,
                5.39086389541626,
                0
            ],
            "min" : [
                -5.400000095367432,
                -7.800000190734863,
                -8.800000190734863
            ],
            "type" : "VEC3"
        },
        {
            "bufferView" : 1,
            "componentType" : 5126,
            "count" : 248,
            "type" : "VEC3"
        },
        {
            "bufferView" : 2,
            "componentType" : 5123,
            "count" : 807,
            "type" : "SCALAR"
        },
        {
            "bufferView" : 3,
            "componentType" : 5126,
            "count" : 209,
            "max" : [
                5.400000095367432,
                5.39086389541626,
                0
            ],
            "min" : [
                -5.400000095367432,
                -7.800000190734863,
                -8.570329666137695
            ],
            "type" : "VEC3"
        },
        {
            "bufferView" : 4,
            "componentType" : 5126,
            "count" : 209,
            "type" : "VEC3"
        },
        {
            "bufferView" : 5,
            "componentType" : 5123,
            "count" : 573,
            "type" : "SCALAR"
        }
    ],
    "bufferViews" : [
        {
            "buffer" : 0,
            "byteLength" : 2976,
            "byteOffset" : 0
        },
        {
            "buffer" : 0,
            "byteLength" : 2976,
            "byteOffset" : 2976
        },
        {
            "buffer" : 0,
            "byteLength" : 1614,
            "byteOffset" : 5952
        },
        {
            "buffer" : 0,
            "byteLength" : 2508,
            "byteOffset" : 7568
        },
        {
            "buffer" : 0,
            "byteLength" : 2508,
            "byteOffset" : 10076
        },
        {
            "buffer" : 0,
            "byteLength" : 1146,
            "byteOffset" : 12584
        }
    ],
    "buffers" : [
        {
            "byteLength" : 13732,
            "uri" : "data:application/octet-stream;base64,"
        }
    ]
}
